<?xml version="1.0" encoding="utf-8"?>
<!-- Generator: Adobe Illustrator 16.0.0, SVG Export Plug-In . SVG Version: 6.00 Build 0)  -->
<!DOCTYPE svg PUBLIC "-//W3C//DTD SVG 1.1//EN" "http://www.w3.org/Graphics/SVG/1.1/DTD/svg11.dtd">
<svg version="1.1" id="Layer_1" xmlns="http://www.w3.org/2000/svg" xmlns:xlink="http://www.w3.org/1999/xlink" x="0px" y="0px"
	 width="800px" height="720px" viewBox="0 0 800 720" enable-background="new 0 0 800 720" xml:space="preserve">
<path fill="#FFFFFF" d="M381.066,667.519c0-107.694-3.019-223.438,107.691-342.203c110.714-118.763,99.39-251.356,51.371-278.479
	c-51.399-29.033-106.728-7.36-153.023,62.086c-46.3,69.448-37.242,147.951,0,147.951c37.237,0,52.335-53.342,30.191-110.711
	c-22.141-57.37-1.058-76.693,34.474-96.622c15.472-8.681,111.342-35.479,113.981,70.202c2.174,86.865-32.403,145.39-94.357,195.886
	c-65.294,53.215-246.332,41.894-246.332,41.894c109.704,17.107,120.777,95.614,103.666,159.023
	c-17.107,63.408-28.181,150.973-28.181,150.973H381.066z"/>
</svg>
